<?xml version="1.0" encoding="utf-8"?>
<!-- Generator: Adobe Illustrator 26.0.1, SVG Export Plug-In . SVG Version: 6.00 Build 0)  -->
<svg version="1.1" id="Слой_1" xmlns="http://www.w3.org/2000/svg" xmlns:xlink="http://www.w3.org/1999/xlink" x="0px" y="0px"
	 viewBox="0 0 255.12 141.73" style="enable-background:new 0 0 255.12 141.73;" xml:space="preserve">
<style type="text/css">
	.st0{fill:url(#SVGID_1_);}
</style>
<linearGradient id="SVGID_1_" gradientUnits="userSpaceOnUse" x1="26.6376" y1="68.385" x2="228.544" y2="68.385">
	<stop  offset="0" style="stop-color:#000000"/>
	<stop  offset="0.028" style="stop-color:#181817"/>
	<stop  offset="0.0746" style="stop-color:#3C3733"/>
	<stop  offset="0.134" style="stop-color:#594D41"/>
	<stop  offset="0.2039" style="stop-color:#7D5E42"/>
	<stop  offset="0.2818" style="stop-color:#A36027"/>
	<stop  offset="0.3156" style="stop-color:#B35A11"/>
	<stop  offset="0.3658" style="stop-color:#BA6311"/>
	<stop  offset="0.4531" style="stop-color:#CD7B0F"/>
	<stop  offset="0.5521" style="stop-color:#E59E04"/>
	<stop  offset="0.8652" style="stop-color:#7E7006"/>
	<stop  offset="0.9944" style="stop-color:#000000"/>
</linearGradient>
<path class="st0" d="M26.64,105v-1.51l3.11-0.99c0.23-0.07,0.41-0.18,0.55-0.33c0.14-0.15,0.21-0.38,0.21-0.68V79.53
	c0-0.28-0.07-0.5-0.22-0.65c-0.15-0.15-0.33-0.25-0.55-0.32l-3.11-1.03v-1.47h29.98v1.47l-3.07,1.03c-0.22,0.07-0.4,0.18-0.56,0.33
	c-0.16,0.16-0.24,0.37-0.24,0.64v21.95c0,0.3,0.08,0.52,0.24,0.68c0.16,0.15,0.35,0.27,0.56,0.33l3.07,0.99V105H44.64v-1.51
	l3.07-0.99c0.24-0.07,0.44-0.18,0.59-0.33c0.15-0.15,0.22-0.38,0.22-0.68V78.5H34.75v22.98c0,0.3,0.07,0.52,0.21,0.68
	c0.14,0.15,0.33,0.27,0.57,0.33l3.09,0.99V105H26.64z M67.19,105.42c-1.3,0-2.42-0.29-3.35-0.87c-0.93-0.58-1.64-1.33-2.14-2.25
	c-0.5-0.92-0.75-1.91-0.75-2.96c0-1.38,0.34-2.55,1.03-3.5c0.69-0.95,1.57-1.71,2.64-2.28c1.08-0.57,2.21-0.98,3.41-1.24
	c1.2-0.25,2.31-0.38,3.33-0.38c0.2,0,0.53,0.02,0.98,0.06c0.45,0.04,0.9,0.08,1.36,0.13c0.46,0.05,0.77,0.08,0.95,0.11l0.02-2.99
	c0.01-1.52-0.36-2.57-1.12-3.15c-0.76-0.58-1.74-0.87-2.94-0.87c-0.69,0-1.37,0.12-2.06,0.35c-0.69,0.24-1.35,0.53-1.98,0.89
	c-0.63,0.36-1.21,0.72-1.75,1.08c-0.53,0.36-0.99,0.67-1.36,0.91h-0.81l-0.14-3.93c0.78-0.3,1.58-0.58,2.39-0.86
	c0.81-0.28,1.7-0.5,2.66-0.69c0.96-0.18,2.05-0.27,3.28-0.27c1.32,0,2.58,0.19,3.77,0.57c1.2,0.38,2.18,1.08,2.95,2.08
	c0.77,1,1.14,2.44,1.13,4.31l-0.04,11.2c0,0.5,0.2,0.91,0.6,1.22c0.4,0.32,0.84,0.47,1.32,0.47c0.27,0,0.59-0.07,0.96-0.2
	c0.37-0.13,0.71-0.28,1.02-0.42h0.32v1.69c-0.26,0.19-0.63,0.42-1.12,0.71c-0.49,0.28-1.01,0.53-1.54,0.75
	c-0.54,0.21-1.02,0.32-1.45,0.32c-1.26,0-2.21-0.3-2.83-0.89c-0.63-0.59-0.94-1.52-0.94-2.78h-0.26c-0.74,1.05-1.56,1.84-2.47,2.36
	c-0.91,0.52-1.81,0.87-2.69,1.05C68.69,105.33,67.89,105.42,67.19,105.42z M69.17,102.51c0.87,0,1.86-0.18,2.96-0.55
	s1.94-0.96,2.53-1.77V94.1c-1.87,0-3.51,0.12-4.92,0.35c-1.41,0.24-2.51,0.68-3.3,1.32c-0.79,0.65-1.18,1.59-1.18,2.84
	c0,1.01,0.2,1.8,0.61,2.36c0.4,0.57,0.91,0.96,1.51,1.19C67.98,102.4,68.58,102.51,69.17,102.51z M85.3,105v-1.44l2.4-0.79
	c0.24-0.08,0.43-0.19,0.57-0.34c0.14-0.14,0.22-0.35,0.22-0.63V86.98c0-0.28-0.07-0.49-0.22-0.63c-0.14-0.14-0.33-0.26-0.57-0.34
	l-2.4-0.77v-1.46h9.76v1.46l-1.85,0.77c-0.21,0.09-0.39,0.21-0.55,0.35c-0.16,0.14-0.24,0.35-0.24,0.62v5.95h9.97v-5.95
	c0-0.28-0.08-0.48-0.24-0.62c-0.16-0.14-0.34-0.25-0.55-0.35l-1.85-0.77v-1.46h9.76v1.46l-2.4,0.77c-0.24,0.08-0.43,0.19-0.57,0.34
	c-0.14,0.14-0.22,0.36-0.22,0.63v14.82c0,0.28,0.07,0.49,0.22,0.63c0.14,0.14,0.33,0.26,0.57,0.34l2.4,0.79V105h-9.76v-1.44
	l1.85-0.79c0.21-0.09,0.39-0.21,0.55-0.35c0.16-0.14,0.24-0.34,0.24-0.62v-6.78h-9.97v6.78c0,0.28,0.08,0.48,0.25,0.62
	c0.16,0.14,0.34,0.25,0.54,0.35l1.85,0.79V105H85.3z M126.78,105v-1.73l2.89-0.95c0.28-0.09,0.51-0.23,0.69-0.4s0.26-0.43,0.26-0.76
	V83.38c0-0.33-0.09-0.59-0.26-0.77c-0.17-0.18-0.4-0.31-0.69-0.39l-3.1-0.92v-1.75h22.09v9.01h-2.98L144.52,83
	c-0.05-0.24-0.16-0.43-0.34-0.57c-0.18-0.14-0.41-0.21-0.7-0.21h-8.16v18.94c0,0.33,0.09,0.59,0.26,0.77
	c0.17,0.18,0.4,0.31,0.69,0.39l3.24,0.95V105H126.78z M151.97,114.96v-1.47l2.56-0.83c0.24-0.08,0.43-0.19,0.58-0.33
	c0.14-0.14,0.21-0.35,0.21-0.63V87.48c0-0.3-0.08-0.52-0.24-0.69c-0.16-0.16-0.37-0.29-0.62-0.38l-2.38-0.99v-1.43l6.92-1.11v3.59
	h0.26c0.63-0.94,1.34-1.69,2.12-2.23c0.78-0.55,1.6-0.94,2.46-1.17c0.86-0.24,1.72-0.35,2.56-0.35c1.8,0,3.35,0.46,4.63,1.37
	c1.28,0.92,2.27,2.16,2.97,3.73c0.69,1.57,1.04,3.36,1.04,5.37c0,2.22-0.41,4.24-1.24,6.06c-0.83,1.82-2.01,3.28-3.54,4.37
	c-1.53,1.09-3.38,1.63-5.53,1.63c-1.26,0-2.34-0.22-3.22-0.66c-0.88-0.44-1.6-0.93-2.15-1.48v0.93v7.63c0,0.28,0.08,0.49,0.24,0.64
	c0.16,0.14,0.35,0.25,0.56,0.31l3.13,0.87v1.47H151.97z M159.36,88.01v13.6c0.4,0.25,0.91,0.46,1.52,0.62
	c0.61,0.16,1.22,0.28,1.82,0.35c0.6,0.07,1.08,0.11,1.44,0.11c1.51,0,2.75-0.37,3.72-1.11c0.98-0.74,1.7-1.72,2.18-2.95
	c0.48-1.22,0.72-2.57,0.72-4.04c0-1.68-0.23-3.19-0.69-4.54c-0.46-1.35-1.17-2.41-2.14-3.2c-0.97-0.79-2.22-1.18-3.75-1.18
	c-0.94,0-1.84,0.2-2.7,0.6C160.61,86.68,159.91,87.25,159.36,88.01z M185.61,105.42c-1.31,0-2.42-0.29-3.35-0.87
	c-0.93-0.58-1.64-1.33-2.14-2.25c-0.5-0.92-0.75-1.91-0.75-2.96c0-1.38,0.34-2.55,1.03-3.5c0.69-0.95,1.57-1.71,2.64-2.28
	c1.08-0.57,2.21-0.98,3.41-1.24c1.2-0.25,2.31-0.38,3.33-0.38c0.2,0,0.53,0.02,0.98,0.06c0.45,0.04,0.9,0.08,1.36,0.13
	c0.46,0.05,0.77,0.08,0.95,0.11l0.02-2.99c0.01-1.52-0.36-2.57-1.12-3.15c-0.76-0.58-1.74-0.87-2.94-0.87
	c-0.69,0-1.37,0.12-2.06,0.35c-0.69,0.24-1.35,0.53-1.98,0.89c-0.63,0.36-1.21,0.72-1.75,1.08c-0.53,0.36-0.98,0.67-1.36,0.91h-0.81
	l-0.14-3.93c0.78-0.3,1.58-0.58,2.39-0.86c0.81-0.28,1.7-0.5,2.66-0.69c0.96-0.18,2.05-0.27,3.28-0.27c1.32,0,2.58,0.19,3.77,0.57
	c1.2,0.38,2.18,1.08,2.95,2.08c0.77,1,1.14,2.44,1.13,4.31l-0.04,11.2c0,0.5,0.2,0.91,0.6,1.22c0.4,0.32,0.84,0.47,1.32,0.47
	c0.27,0,0.59-0.07,0.96-0.2c0.37-0.13,0.71-0.28,1.02-0.42h0.32v1.69c-0.26,0.19-0.63,0.42-1.12,0.71
	c-0.49,0.28-1.01,0.53-1.54,0.75c-0.54,0.21-1.02,0.32-1.45,0.32c-1.26,0-2.21-0.3-2.83-0.89c-0.63-0.59-0.94-1.52-0.94-2.78h-0.26
	c-0.74,1.05-1.56,1.84-2.47,2.36c-0.91,0.52-1.81,0.87-2.69,1.05C187.1,105.33,186.31,105.42,185.61,105.42z M187.58,102.51
	c0.87,0,1.86-0.18,2.96-0.55c1.1-0.37,1.94-0.96,2.53-1.77V94.1c-1.87,0-3.51,0.12-4.92,0.35c-1.41,0.24-2.51,0.68-3.3,1.32
	c-0.79,0.65-1.18,1.59-1.18,2.84c0,1.01,0.2,1.8,0.61,2.36c0.4,0.57,0.91,0.96,1.51,1.19S186.99,102.51,187.58,102.51z M203.77,105
	v-1.47l2.46-0.81c0.24-0.08,0.44-0.19,0.59-0.34c0.15-0.15,0.22-0.36,0.22-0.65V86.55c0-0.28-0.07-0.5-0.22-0.65
	c-0.15-0.15-0.34-0.26-0.59-0.34l-2.46-0.79v-1.49h9.99v1.49l-1.9,0.79c-0.22,0.09-0.4,0.21-0.57,0.35
	c-0.16,0.14-0.24,0.35-0.24,0.64v6.09h10.21v-6.09c0-0.28-0.08-0.49-0.24-0.64c-0.16-0.14-0.35-0.26-0.57-0.35l-1.9-0.79v-1.49h9.99
	v1.49l-2.46,0.79c-0.24,0.08-0.44,0.2-0.59,0.34c-0.15,0.15-0.22,0.36-0.22,0.65v15.17c0,0.28,0.07,0.5,0.22,0.65
	c0.15,0.15,0.34,0.26,0.59,0.34l2.46,0.81V105h-9.99v-1.47l1.9-0.81c0.22-0.09,0.4-0.21,0.57-0.35c0.16-0.14,0.24-0.35,0.24-0.64
	v-6.94h-10.21v6.94c0,0.28,0.08,0.49,0.25,0.64c0.17,0.14,0.35,0.26,0.56,0.35l1.9,0.81V105H203.77z M151.83,31.35
	c-3.17-0.22-5.3-0.38-7.42-0.51c-6.06-0.38-11.88-1.51-17.62-3.75c-5.75-2.24-11.88-3.51-18.13-5.29
	c-6.44,6.87-12.65,13.49-18.96,20.22c2.18,8.7,4.41,16.89,11.73,23c5.85,4.88,10.76,10.9,15.91,16.23c1.19-0.41,1.84-0.43,2.15-0.77
	c5.93-6.32,13.53-7.29,21.53-6.79c3.72,0.23,6.93-0.78,10.08-2.72c6.52-4.01,13.17-7.8,19.81-11.71c1.05-3.56,2.06-6.95,3.2-10.8
	C165.36,44.18,155.56,41.59,151.83,31.35z M108.79,25.22c4.59,3.48,8.55,6.48,12.64,9.58c-3.76,5.77-7.36,11.3-11.14,17.11
	c-5.82-3.49-11.23-6.73-16.97-10.17C98.79,35.91,103.66,30.7,108.79,25.22z M166.37,59.1c-6.67,3.87-13.22,7.68-19.9,11.56
	c-4.81-4.01-9.36-7.8-14.47-12.07c9.37-3.06,17.76-5.8,26.42-8.64C161.06,52.98,163.49,55.78,166.37,59.1z M144.42,47.7
	c-10.31,1.39-20.09,2.71-31.12,4.2c4.02-6.16,7.31-11.2,10.71-16.41c6.68,2.44,13.01,4.76,19.48,7.13
	C143.76,44.09,144.01,45.46,144.42,47.7z M119.5,74.33c-2.41-6.94-4.53-13.04-6.85-19.74c11.95-1.63,23.2-3.17,34.44-4.7
	c0.07,0.32,0.14,0.64,0.21,0.96c-6.5,2.21-13,4.41-19.47,6.61C125.08,63.05,122.42,68.42,119.5,74.33z M109.74,54.5
	c2.08,6.76,5.94,12.89,5.98,20.43c-5.38-4.73-10.2-9.94-15.43-14.67c-4.45-4.02-5.32-9.16-6.37-15.22
	C99.59,48.43,104.61,51.43,109.74,54.5z M156.72,45.99c-5.41-2.51-10.36-4.8-15.73-7.29c-0.79-1.44-1.76-3.21-3.13-5.72
	c4.68,0.27,8.36,0.49,12.27,0.71C152.19,37.74,156.78,40.2,156.72,45.99z M142.56,70.59c-7.18,1.43-14.02-0.97-19.83,3.25
	c2.29-4.41,4.57-8.81,7.1-13.68C134.06,63.63,137.89,66.76,142.56,70.59z"/>
</svg>
