<?xml version="1.0" encoding="utf-8"?>
<!-- Generator: Adobe Illustrator 26.0.1, SVG Export Plug-In . SVG Version: 6.00 Build 0)  -->
<svg version="1.1" id="Слой_1" xmlns="http://www.w3.org/2000/svg" xmlns:xlink="http://www.w3.org/1999/xlink" x="0px" y="0px"
	 viewBox="0 0 500 500" style="enable-background:new 0 0 500 500;" xml:space="preserve">
<style type="text/css">
	.st0{fill:url(#SVGID_1_);}
</style>
<g>
	<g>
		<linearGradient id="SVGID_1_" gradientUnits="userSpaceOnUse" x1="35.5289" y1="249.9938" x2="464.4927" y2="249.9938">
			<stop  offset="0" style="stop-color:#AE7125"/>
			<stop  offset="0.3371" style="stop-color:#F9B400"/>
			<stop  offset="0.4101" style="stop-color:#F7AA0E"/>
			<stop  offset="0.5732" style="stop-color:#F3962A"/>
			<stop  offset="0.6685" style="stop-color:#F18F34"/>
			<stop  offset="1" style="stop-color:#AC4923"/>
		</linearGradient>
		<path class="st0" d="M422.7,378.5c-0.7,0-1.4,0-2.2-0.1c-7.8,0.6-15-2.5-21.9-9.4L250.1,220.5c-0.1-0.1-0.3-0.3-0.4-0.5
			c-0.2,0.2-0.3,0.3-0.5,0.5L102.7,367c-5,5-9.9,8.1-15.6,9.8c-10.2,3.2-20.8,1-27.7-5.9c-1-0.9-1.9-1.8-2.9-2.7
			c-4.8-4.4-9.8-9-14.2-14.5l-0.1-0.1c-8.6-11.1-8.7-25.5-0.4-36c4.2-5.5,9-10.3,13.7-15c0.9-0.9,1.8-1.8,2.7-2.6
			c27.7-27.9,56.1-56.3,83.5-83.7c27.4-27.4,55.7-55.7,83.5-83.7c4.5-4.5,9-8,15.8-9.9c9.2-2.7,19.4-1,27.2,4.5l0.1,0.1
			c6.5,4.7,11.5,9.9,15.9,14.7l166.5,166.5c2.6,2.6,4.5,5.3,6.4,8c1,1.5,2,2.9,3,4.1l0.2,0.3c3.8,5.2,5.1,11.6,3.9,18.8l-0.2,0.7
			l-0.1,0.5c-1.3,4.7-2.8,10.5-7.7,14.8c-2.2,2-4.4,4.2-6.7,6.5c-2.2,2.2-4.6,4.6-6.9,6.7C436.5,375.3,429.9,378.5,422.7,378.5z
			 M420.5,364.3l0.8,0.1c2.8,0.3,6.3,0,11-5.1l0.4-0.4c2.2-2,4.4-4.2,6.7-6.5c2.3-2.3,4.8-4.8,7.2-7l0.1-0.1c1.8-1.6,2.6-4.7,3.5-8
			l0-0.2c0.5-3.3,0.1-5.7-1.4-7.8c-1.3-1.6-2.4-3.2-3.5-4.7c-1.6-2.3-3.1-4.4-4.8-6.1L273.9,151.7l-0.1-0.1c-4-4.3-8.4-8.9-14-12.9
			c-5.1-3.6-11.2-3.6-15.2-2.4c-4,1.1-6.5,3.1-9.8,6.3c-27.8,28-56.1,56.3-83.5,83.7C124.1,253.7,95.7,282,68,309.9
			c-0.9,0.9-1.8,1.8-2.7,2.7c-4.4,4.3-8.9,8.8-12.4,13.5l-0.2,0.2c-4.4,5.4-4.2,12.6,0.4,18.6c3.8,4.7,8.2,8.7,12.8,13
			c1,0.9,2,1.9,3.1,2.8l0.2,0.2c3.2,3.2,8.5,4.2,13.8,2.5c3.6-1.1,6.5-3,9.9-6.4l146.5-146.5c3.4-3.4,6.1-6.1,10.4-6.1
			s6.9,2.7,10.4,6.1l148.5,148.5c4.1,4.1,7.5,5.7,11.2,5.3L420.5,364.3z"/>
	</g>
</g>
</svg>
